<svg width="16" height="16" viewBox="0 0 16 16" xmlns="http://www.w3.org/2000/svg">
  <path d="M5.80502 14.9602c-.10232-.0432-.18735-.1192-.24167-.2161-.05433-.0969-.07485-.2091-.05833-.3189l.91-5.92502h-2.415c-.07656.00206-.15258-.0135-.22217-.04547-.0696-.03197-.13092-.07951-.17924-.13894-.04831-.05942-.08233-.12916-.09943-.20381-.01709-.07466-.0168-.15225.00084-.22678l1.5-6.5c.02639-.11187.09052-.21122.18159-.28134.09107-.07013.20351-.106733.31841-.10366H10.5c.0747-.000255.1485.01623.216.04824.0675.03202.127.07875.174.13676.0477.05866.0815.12739.0989.20101.0173.07361.0177.1502.0011.22399l-.865 3.89H12.5c.0937-.00019.1856.02596.2652.07547.0795.04951.1436.12038.1848.20453.0359.08077.0496.16959.04.25742-.0097.08783-.0424.17153-.095.24258L6.39502 14.7802c-.04393.0651-.10259.119-.17121.1572-.06863.0382-.1453.0597-.22379.0628-.0669-.0013-.13301-.0148-.195-.04Z" fill="#606060" />
</svg>