<svg width="16" height="16" viewBox="0 0 16 16" xmlns="http://www.w3.org/2000/svg">
  <path d="M12.5997 8c0-.246-.0247-.48525-.0622-.72075L14 5.99975 12.758 3.9605l-1.7438.56925c-.4206-.36549-.9043-.65139-1.42725-.84375L9.19995 2h-2.4l-.387 1.68675c-.52315.19234-1.00683.47853-1.42725.8445l-1.74375-.57-1.242 2.0385 1.46175 1.2795c-.03675.2355-.0615.47475-.0615.72075s.02475.48525.0615.72075L1.99995 10.0002l1.24275 2.0393 1.743-.5692c.42062.3659.90457.6518 1.428.8437L6.79995 14h2.4l.38625-1.6867c.5233-.1918 1.007-.4777 1.4273-.8438l1.743.5693L14 10.0002l-1.4625-1.2787c.0375-.23625.0622-.4755.0622-.7215ZM7.99995 9.5c-.39792-.0001-.77951-.15827-1.06081-.43971-.28131-.28145-.43928-.66312-.43919-1.06104.0001-.39792.15827-.77951.43972-1.06082.28145-.2813.66311-.43928 1.06104-.43918.39792.0001.77951.15827 1.06081.43971.2813.28145.43928.66312.43918 1.06104-.0001.39792-.15826.77951-.43971 1.06082-.28145.2813-.66311.43928-1.06104.43918Z" fill="#606060" />
</svg>